<svg xmlns="http://www.w3.org/2000/svg" viewBox="0 0 32 32">
  <rect width="32" height="32" fill="#1a1a1a"/>
  <path fill="#c8a855" d="M9.775 23.8Q7.495 23.275 6.25 21.737Q5.005 20.2 5.005 17.935V15.25Q5.005 13 6.25 11.47Q7.495 9.94 9.775 9.4V11.26Q8.44 11.575 7.667 12.648Q6.895 13.72 6.895 15.25V17.935Q6.895 19.465 7.667 20.538Q8.44 21.61 9.775 21.925Z M22.225 23.8V21.925Q23.56 21.61 24.332 20.538Q25.105 19.465 25.105 17.935V15.25Q25.105 13.72 24.332 12.648Q23.56 11.575 22.225 11.26V9.4Q24.505 9.94 25.75 11.47Q26.995 13 26.995 15.25V17.935Q26.995 20.2 25.75 21.737Q24.505 23.275 22.225 23.8Z"/>
  <path fill="#ffffff" d="M15.655 22.135Q14.185 22.135 13.33 21.468Q12.475 20.8 12.475 19.66H14.32Q14.32 20.14 14.672 20.395Q15.025 20.65 15.655 20.65H16.315Q16.99 20.65 17.358 20.395Q17.725 20.14 17.725 19.66Q17.725 19.21 17.47 18.992Q17.215 18.775 16.69 18.7L14.635 18.43Q13.645 18.295 13.113 17.665Q12.58 17.035 12.58 16.03Q12.58 14.86 13.36 14.238Q14.14 13.615 15.61 13.615H16.3Q17.68 13.615 18.52 14.245Q19.36 14.875 19.39 15.925H17.53Q17.515 15.535 17.185 15.303Q16.855 15.07 16.3 15.07H15.61Q15.01 15.07 14.695 15.318Q14.38 15.565 14.38 15.985Q14.38 16.36 14.612 16.54Q14.845 16.72 15.295 16.765L17.23 17.035Q18.37 17.17 18.947 17.837Q19.525 18.505 19.525 19.63Q19.525 20.83 18.707 21.483Q17.89 22.135 16.315 22.135Z"/>
</svg>
