<svg xmlns="http://www.w3.org/2000/svg" viewBox="0 0 366.00 132.00" width="366.00" height="132.00">
  <path d="M48.5000 104.3000L48.5000 114Q34 110.7000 26.0500 100.5000Q18.1000 90.3000 18.1000 75L18.1000 57Q18.1000 41.7000 26.0500 31.5000Q34 21.3000 48.5000 18L48.5000 27.6000Q42.2000 29.1000 37.6000 33.1500Q33 37.2000 30.5000 43.3000Q28 49.4000 28 57L28 75Q28 82.6000 30.5000 88.6500Q33 94.7000 37.6000 98.7500Q42.2000 102.8000 48.5000 104.3000" fill="#c8a855" />
  <path d="M93.2000 102.8000L88.8000 102.8000Q79.4000 102.8000 74.2000 98.6000Q69 94.4000 69 86.8000L78.8000 86.8000Q78.8000 90.4000 81.4500 92.4500Q84.1000 94.5000 88.8000 94.5000L93.2000 94.5000Q98.1000 94.5000 100.7500 92.4000Q103.4000 90.3000 103.4000 86.5000Q103.4000 79.8000 96.8000 79L82 76.9000Q76.1000 76 72.9000 72.0500Q69.7000 68.1000 69.7000 61.8000Q69.7000 54.4000 74.7000 50.3000Q79.7000 46.2000 88.7000 46.2000L93.1000 46.2000Q101.5000 46.2000 106.7000 50.2000Q111.9000 54.2000 112.2000 60.8000L102.2000 60.8000Q102 58 99.6000 56.1500Q97.2000 54.3000 93.1000 54.3000L88.7000 54.3000Q84.2000 54.3000 81.7500 56.3000Q79.3000 58.3000 79.3000 61.7000Q79.3000 67.2000 84.8000 67.9000L98.7000 69.9000Q113 71.8000 113 86.5000Q113 94.3000 107.8500 98.5500Q102.7000 102.8000 93.2000 102.8000 M152 103Q142.1000 103 136.0500 97.1000Q130 91.2000 130 81L130 68Q130 57.8000 136.0500 51.9000Q142.1000 46 152 46Q158.6000 46 163.5500 48.6500Q168.5000 51.3000 171.2500 56.0500Q174 60.8000 174 67.1000L174 77L139.7000 77L139.7000 81.8000Q139.7000 87.8000 143 91.2000Q146.3000 94.6000 152 94.6000Q156.8000 94.6000 159.9000 92.8000Q163 91 163.6000 87.8000L173.5000 87.8000Q172.5000 94.8000 166.6000 98.9000Q160.7000 103 152 103M139.7000 67.1000L139.7000 69.7000L164.3000 69.7000L164.3000 67.1000Q164.3000 60.8000 161.1000 57.4000Q157.9000 54 152 54Q146.1000 54 142.9000 57.4000Q139.7000 60.8000 139.7000 67.1000 M197.7000 102L188.7000 102L188.7000 47L197.1000 47L197.1000 54.5000L197.4000 54.5000Q197.8000 50.7000 200.2500 48.3500Q202.7000 46 206.5000 46Q210.2000 46 212.7000 48.2000Q215.2000 50.4000 216.3000 54.1000Q216.9000 50.3000 219.4000 48.1500Q221.9000 46 225.7000 46Q230.9000 46 234.1000 49.9500Q237.3000 53.9000 237.3000 60.2000L237.3000 102L228.3000 102L228.3000 60.3000Q228.3000 57.2000 226.7500 55.3500Q225.2000 53.5000 222.6000 53.5000Q220 53.5000 218.5000 55.3000Q217 57.1000 217 60.3000L217 102L209 102L209 60.3000Q209 57.2000 207.5000 55.3500Q206 53.5000 203.4000 53.5000Q200.8000 53.5000 199.2500 55.3000Q197.7000 57.1000 197.7000 60.3000 M268.9000 103Q260.4000 103 255.4500 98.2500Q250.5000 93.5000 250.5000 85.8000Q250.5000 78.1000 255.6500 73.4000Q260.8000 68.7000 269.2000 68.7000L285.3000 68.7000L285.3000 64.5000Q285.3000 54.4000 274.1000 54.4000Q269.1000 54.4000 266.0500 56.2500Q263 58.1000 262.8000 61.4000L253 61.4000Q253.5000 54.7000 259.1000 50.3500Q264.7000 46 274.1000 46Q284.2000 46 289.7000 50.8000Q295.2000 55.6000 295.2000 64.3000L295.2000 102L285.5000 102L285.5000 91.9000L285.3000 91.9000Q284.6000 97 280.2500 100Q275.9000 103 268.9000 103M271.5000 94.7000Q277.8000 94.7000 281.5500 91.6500Q285.3000 88.6000 285.3000 83.3000L285.3000 76L270.1000 76Q265.8000 76 263.1500 78.5500Q260.5000 81.1000 260.5000 85.3000Q260.5000 89.6000 263.4000 92.1500Q266.3000 94.7000 271.5000 94.7000" fill="#ffffff" />
  <path d="M316.5000 114L316.5000 104.3000Q322.8000 102.8000 327.4000 98.7500Q332 94.7000 334.5500 88.6500Q337.1000 82.6000 337.1000 75L337.1000 57Q337.1000 49.4000 334.5500 43.3000Q332 37.2000 327.4000 33.1500Q322.8000 29.1000 316.5000 27.6000L316.5000 18Q331 21.3000 339 31.5000Q347 41.7000 347 57L347 75Q347 90.3000 339 100.5000Q331 110.7000 316.5000 114" fill="#c8a855" />
</svg>
