<svg xmlns="http://www.w3.org/2000/svg" viewBox="0 0 16 16" width="16" height="16" fill="none">
  <path fill="#6b6354" fill-opacity="0.65" d="M3.473 12.52Q2.18 12.223 1.475 11.351Q0.769 10.48 0.769 9.197V7.675Q0.769 6.4 1.475 5.533Q2.18 4.666 3.473 4.36V5.414Q2.716 5.592 2.278 6.2Q1.841 6.808 1.841 7.675V9.197Q1.841 10.063 2.278 10.671Q2.716 11.279 3.473 11.457Z M10.527 12.52V11.457Q11.284 11.279 11.722 10.671Q12.16 10.063 12.16 9.197V7.675Q12.16 6.808 11.722 6.2Q11.284 5.592 10.527 5.414V4.36Q11.82 4.666 12.525 5.533Q13.231 6.4 13.231 7.675V9.197Q13.231 10.48 12.525 11.351Q11.82 12.223 10.527 12.52Z"/>
  <path fill="#968c79" d="M6.805 11.576Q5.972 11.576 5.487 11.198Q5.003 10.82 5.003 10.174H6.048Q6.048 10.446 6.248 10.59Q6.447 10.735 6.805 10.735H7.179Q7.561 10.735 7.769 10.59Q7.978 10.446 7.978 10.174Q7.978 9.919 7.833 9.796Q7.689 9.672 7.391 9.63L6.227 9.477Q5.665 9.4 5.364 9.043Q5.062 8.686 5.062 8.117Q5.062 7.454 5.504 7.101Q5.946 6.748 6.779 6.748H7.17Q7.952 6.748 8.428 7.105Q8.904 7.462 8.921 8.057H7.867Q7.859 7.836 7.671 7.705Q7.485 7.573 7.17 7.573H6.779Q6.439 7.573 6.261 7.713Q6.082 7.854 6.082 8.091Q6.082 8.304 6.214 8.406Q6.346 8.508 6.601 8.534L7.697 8.686Q8.343 8.763 8.67 9.141Q8.998 9.52 8.998 10.157Q8.998 10.837 8.534 11.207Q8.071 11.576 7.179 11.576Z"/>
  <circle cx="13" cy="12.5" r="2.8" fill="#c8a855"/>
  <path fill="#131110" d="M13.045 14.25Q12.68 14.25 12.405 14.113Q12.13 13.975 11.98 13.727Q11.83 13.48 11.83 13.15V12.5Q11.83 12.165 11.98 11.92Q12.13 11.675 12.405 11.537Q12.68 11.4 13.045 11.4Q13.59 11.4 13.915 11.675Q14.24 11.95 14.26 12.425H13.53Q13.515 12.25 13.383 12.15Q13.25 12.05 13.045 12.05Q12.82 12.05 12.7 12.165Q12.58 12.28 12.58 12.5V13.15Q12.58 13.365 12.7 13.482Q12.82 13.6 13.045 13.6Q13.25 13.6 13.383 13.502Q13.515 13.405 13.53 13.225H14.26Q14.24 13.7 13.915 13.975Q13.59 14.25 13.045 14.25Z"/>
</svg>
